<svg width="216" height="220" viewBox="0 0 216 220" fill="none" xmlns="http://www.w3.org/2000/svg">
<g id="Group">
<path id="Vector" d="M9.69824 207.84V219.501H23.1776L9.69824 207.84Z" fill="#D915CA"/>
<path id="Vector_2" d="M183.721 0.5H9.94141V219.5H199.905V14.5001L183.721 0.5Z" stroke="#D915CA" stroke-width="0.72045" stroke-miterlimit="10"/>
<path id="Vector_3" d="M124.816 0.5L118.679 5.80916H98.9037L92.7666 0.5" stroke="#D915CA" stroke-width="0.36015" stroke-miterlimit="10"/>
<g id="Group_2">
<g id="Group_3">
<g id="Group_4">
<g id="Group_5">
<path id="Vector_4" d="M211.02 200.27L210.286 200.904L214.921 204.914L215.654 204.279L211.02 200.27Z" fill="#D915CA"/>
</g>
<g id="Group_6">
<path id="Vector_5" d="M214.921 200.266L210.286 204.275L211.02 204.91L215.655 200.901L214.921 200.266Z" fill="#D915CA"/>
</g>
</g>
</g>
<g id="Group_7">
<g id="Group_8">
<g id="Group_9">
<path id="Vector_6" d="M211.02 214.746L210.286 215.381L214.921 219.39L215.654 218.756L211.02 214.746Z" fill="#D915CA"/>
</g>
<g id="Group_10">
<path id="Vector_7" d="M214.921 214.744L210.286 218.754L211.02 219.389L215.655 215.379L214.921 214.744Z" fill="#D915CA"/>
</g>
</g>
</g>
</g>
<g id="Group_11">
<g id="Group_12">
<path id="Vector_8" d="M2.91602 16.1961L2.91602 0.5L0.000293255 0.5L0.000293255 16.1961H2.91602Z" fill="#D915CA"/>
</g>
<g id="Group_13">
<path id="Vector_9" d="M2.91602 27.0817L2.91602 19.2324H0.000281572L0.000281572 27.0817H2.91602Z" fill="#D915CA"/>
</g>
<g id="Group_14">
<path id="Vector_10" d="M2.91504 31.9188L2.91504 29.3965H-0.00069499L-0.00069499 31.9188H2.91504Z" fill="#D915CA"/>
</g>
</g>
</g>
</svg>
